<?xml version="1.0" encoding="UTF-8"?>
<svg id="Layer_1" data-name="Layer 1" xmlns="http://www.w3.org/2000/svg" viewBox="0 0 85.14 68.52">
  <defs>
    <style>
      .cls-1 {
        fill: #666cdd;
      }

      .cls-2 {
        fill: none;
        stroke: #808184;
        stroke-miterlimit: 10;
        stroke-width: 3px;
      }

      .cls-3 {
        fill: #404041;
      }
    </style>
  </defs>
  <path class="cls-2" d="M66.13,3.44c-9.01,2.77-20.51,8.62-32.12,16.78-10.77,7.57-19.65,15.73-25.39,22.89"/>
  <circle class="cls-1" cx="44.08" cy="34.26" r="34.26"/>
  <path class="cls-3" d="M58.1,48.76c-3.65,3.56-8.63,5.76-14.12,5.76-11.17,0-20.26-9.09-20.26-20.26s9.09-20.26,20.26-20.26c5.49,0,10.47,2.2,14.12,5.76l9.91-9.91C61.82,3.76,53.34,0,43.98,0,25.06,0,9.72,15.34,9.72,34.26s15.34,34.26,34.26,34.26c9.36,0,17.85-3.76,24.03-9.85l-9.91-9.91Z"/>
  <path class="cls-2" d="M8.62,43.11C2.54,50.69-.02,57.16,2.41,60.61c4.73,6.72,26.54-.46,48.72-16.05,22.18-15.59,36.33-33.68,31.6-40.4-2.25-3.21-8.39-3.25-16.6-.73"/>
</svg>