<?xml version="1.0" encoding="UTF-8"?>
<svg id="Layer_1" data-name="Layer 1" xmlns="http://www.w3.org/2000/svg" viewBox="0 0 239.24 68.53">
  <defs>
    <style>
      .cls-1 {
        fill: none;
        stroke: #333;
        stroke-miterlimit: 10;
        stroke-width: 2px;
      }

      .cls-2 {
        fill: #59595c;
      }

      .cls-3 {
        fill: #676cde;
      }
    </style>
  </defs>
  <path class="cls-1" d="M65.63,3.45c-9.01,2.77-20.51,8.62-32.12,16.78-10.77,7.57-19.65,15.73-25.39,22.89"/>
  <circle class="cls-3" cx="43.58" cy="34.27" r="34.26"/>
  <path class="cls-2" d="M43.48,68.53c-16.18-1.88-28.13-19.97-28.13-34.25S26.35,2.27,43.04.02C24.32.26,9.22,15.5,9.22,34.27s15.34,34.26,34.26,34.26h0"/>
  <path d="M57.6,48.77c-3.65,3.56-8.63,5.76-14.12,5.76-11.17,0-20.26-9.09-20.26-20.26s9.09-20.26,20.26-20.26c5.49,0,10.47,2.2,14.12,5.76l9.91-9.91C61.32,3.77,52.84,0,43.48,0,24.56,0,9.22,15.35,9.22,34.27s15.34,34.26,34.26,34.26c9.36,0,17.85-3.76,24.03-9.85,0,0-9.91-9.91-9.91-9.91Z"/>
  <path class="cls-1" d="M8.12,43.12C2.04,50.7-.52,57.17,1.91,60.62c4.73,6.72,26.54-.46,48.72-16.05,22.18-15.59,36.32-33.67,31.6-40.39-2.25-3.21-8.39-3.25-16.6-.73"/>
  <rect x="93.56" y="18.01" width="14" height="50.52"/>
  <circle cx="100.56" cy="7.02" r="7"/>
  <rect x="115.28" y="0" width="14" height="68.51"/>
  <rect x="147.92" y=".02" width="14" height="68.51"/>
  <rect x="131.61" y="-.55" width="14" height="69.61" transform="translate(-.67 65.67) rotate(-26.59)"/>
  <rect x="169.93" y=".02" width="14" height="68.51"/>
  <rect x="170.73" y="0" width="68.51" height="14"/>
  <rect x="170.73" y="27.28" width="68.51" height="14"/>
  <rect x="170.73" y="54.52" width="68.51" height="14"/>
</svg>