<?xml version="1.0" encoding="UTF-8"?>
<svg id="Layer_1" data-name="Layer 1" xmlns="http://www.w3.org/2000/svg" viewBox="0 0 238.74 68.52">
  <defs>
    <style>
      .cls-1 {
        fill: #595a5c;
      }

      .cls-2 {
        fill: #656ab1;
      }

      .cls-3 {
        fill: none;
        stroke: #f2f2f2;
        stroke-miterlimit: 10;
      }

      .cls-4 {
        fill: #f2f2f2;
      }
    </style>
  </defs>
  <path class="cls-3" d="M65.13,3.44c-9.01,2.77-20.51,8.62-32.12,16.78-10.77,7.57-19.65,15.73-25.39,22.89"/>
  <circle class="cls-2" cx="43.08" cy="34.26" r="34.26"/>
  <path class="cls-1" d="M42.98,68.52c-16.18-1.88-28.13-19.97-28.13-34.25S25.85,2.26,42.54.01C23.82.25,8.72,15.49,8.72,34.26s15.34,34.26,34.26,34.26h0"/>
  <path class="cls-4" d="M57.1,48.76c-3.65,3.56-8.63,5.76-14.12,5.76-11.17,0-20.26-9.09-20.26-20.26s9.09-20.26,20.26-20.26c5.49,0,10.47,2.2,14.12,5.76l9.91-9.91C60.82,3.76,52.34,0,42.98,0,24.06,0,8.72,15.34,8.72,34.26s15.34,34.26,34.26,34.26c9.36,0,17.85-3.76,24.03-9.85l-9.91-9.91Z"/>
  <path class="cls-3" d="M7.62,43.11C1.54,50.69-1.02,57.16,1.41,60.61c4.73,6.72,26.54-.46,48.72-16.05S86.45,10.89,81.73,4.17c-2.25-3.21-8.39-3.25-16.6-.73"/>
  <rect class="cls-4" x="93.06" y="18" width="14" height="50.52"/>
  <circle class="cls-4" cx="100.06" cy="7.01" r="7"/>
  <rect class="cls-4" x="114.78" y="0" width="14" height="68.51"/>
  <rect class="cls-4" x="147.42" y=".01" width="14" height="68.51"/>
  <rect class="cls-4" x="131.12" y="-.55" width="14" height="69.61" transform="translate(-.73 65.44) rotate(-26.59)"/>
  <rect class="cls-4" x="169.43" y=".01" width="14" height="68.51"/>
  <rect class="cls-4" x="197.49" y="-27.25" width="14" height="68.51" transform="translate(211.49 -197.49) rotate(90)"/>
  <rect class="cls-4" x="197.49" y=".01" width="14" height="68.51" transform="translate(238.75 -170.22) rotate(90)"/>
  <rect class="cls-4" x="197.49" y="27.26" width="14" height="68.51" transform="translate(266 -142.98) rotate(90)"/>
</svg>